<?xml version="1.0" encoding="UTF-8" standalone="no"?>
<!DOCTYPE svg PUBLIC "-//W3C//DTD SVG 1.1//EN"
 "http://www.w3.org/Graphics/SVG/1.1/DTD/svg11.dtd">
<!-- Generated by graphviz version 2.40.1 (20161225.0304)
 -->
<!-- Title: dependencies Pages: 1 -->
<svg width="5390pt" height="284pt"
 viewBox="0.00 0.00 5390.00 284.00" xmlns="http://www.w3.org/2000/svg" xmlns:xlink="http://www.w3.org/1999/xlink">
<g id="graph0" class="graph" transform="scale(1 1) rotate(0) translate(4 280)">
<title>dependencies</title>
<polygon fill="#ffffff" stroke="transparent" points="-4,4 -4,-280 5386,-280 5386,4 -4,4"/>
<text text-anchor="start" x="2670.0091" y="-42.4" font-family="sans-serif" font-weight="bold" font-size="14.00" fill="#000000">Legend</text>
<polygon fill="#ffffb3" stroke="transparent" points="2457,-10 2457,-30 2477,-30 2477,-10 2457,-10"/>
<text text-anchor="start" x="2480.629" y="-15.4" font-family="sans-serif" font-size="14.00" fill="#000000"> &#160;Declarations</text>
<polygon fill="#8dd3c7" stroke="transparent" points="2570,-10 2570,-30 2590,-30 2590,-10 2570,-10"/>
<text text-anchor="start" x="2593.7251" y="-15.4" font-family="sans-serif" font-size="14.00" fill="#000000"> &#160;Module</text>
<polygon fill="#80b1d3" stroke="transparent" points="2656,-10 2656,-30 2676,-30 2676,-10 2656,-10"/>
<text text-anchor="start" x="2679.7812" y="-15.4" font-family="sans-serif" font-size="14.00" fill="#000000"> &#160;Bootstrap</text>
<polygon fill="#fdb462" stroke="transparent" points="2753,-10 2753,-30 2773,-30 2773,-10 2753,-10"/>
<text text-anchor="start" x="2776.6732" y="-15.4" font-family="sans-serif" font-size="14.00" fill="#000000"> &#160;Providers</text>
<polygon fill="#fb8072" stroke="transparent" points="2849,-10 2849,-30 2869,-30 2869,-10 2849,-10"/>
<text text-anchor="start" x="2872.7258" y="-15.4" font-family="sans-serif" font-size="14.00" fill="#000000"> &#160;Exports</text>
<g id="clust1" class="cluster">
<title>cluster_AppModule</title>
<polygon fill="none" stroke="#000000" stroke-dasharray="1,5" points="8,-70 8,-268 5374,-268 5374,-70 8,-70"/>
</g>
<g id="clust2" class="cluster">
<title>cluster_AppModule_declarations</title>
<polygon fill="none" stroke="#000000" points="435,-78 435,-130 5366,-130 5366,-78 435,-78"/>
</g>
<g id="clust36" class="cluster">
<title>cluster_AppModule_imports</title>
<polygon fill="none" stroke="#000000" points="283,-78 283,-130 427,-130 427,-78 283,-78"/>
</g>
<g id="clust38" class="cluster">
<title>cluster_AppModule_bootstrap</title>
<polygon fill="none" stroke="#000000" points="2618,-208 2618,-260 2742,-260 2742,-208 2618,-208"/>
</g>
<g id="clust39" class="cluster">
<title>cluster_AppModule_providers</title>
<polygon fill="none" stroke="#000000" points="16,-78 16,-130 275,-130 275,-78 16,-78"/>
</g>
<!-- AboutComponent -->
<g id="node1" class="node">
<title>AboutComponent</title>
<polygon fill="#ffffb3" stroke="#000000" points="5358.3301,-122 5241.6699,-122 5241.6699,-86 5358.3301,-86 5358.3301,-122"/>
<text text-anchor="middle" x="5300" y="-99.8" font-family="Times,serif" font-size="14.00" fill="#000000">AboutComponent</text>
</g>
<!-- AppModule -->
<g id="node34" class="node">
<title>AppModule</title>
<polygon fill="#8dd3c7" stroke="#000000" points="2721.6571,-187 2718.6571,-191 2697.6571,-191 2694.6571,-187 2638.3429,-187 2638.3429,-151 2721.6571,-151 2721.6571,-187"/>
<text text-anchor="middle" x="2680" y="-164.8" font-family="Times,serif" font-size="14.00" fill="#000000">AppModule</text>
</g>
<!-- AboutComponent&#45;&gt;AppModule -->
<g id="edge1" class="edge">
<title>AboutComponent&#45;&gt;AppModule</title>
<path fill="none" stroke="#000000" d="M5300,-122.3802C5300,-146.2785 5300,-185 5300,-185 5300,-185 2731.6829,-185 2731.6829,-185"/>
<polygon fill="#000000" stroke="#000000" points="2731.683,-181.5001 2721.6829,-185 2731.6829,-188.5001 2731.683,-181.5001"/>
</g>
<!-- AddmessageComponent -->
<g id="node2" class="node">
<title>AddmessageComponent</title>
<polygon fill="#ffffb3" stroke="#000000" points="5223.3627,-122 5070.6373,-122 5070.6373,-86 5223.3627,-86 5223.3627,-122"/>
<text text-anchor="middle" x="5147" y="-99.8" font-family="Times,serif" font-size="14.00" fill="#000000">AddmessageComponent</text>
</g>
<!-- AddmessageComponent&#45;&gt;AppModule -->
<g id="edge2" class="edge">
<title>AddmessageComponent&#45;&gt;AppModule</title>
<path fill="none" stroke="#000000" d="M5147,-122.3228C5147,-145.6602 5147,-183 5147,-183 5147,-183 2731.7843,-183 2731.7843,-183"/>
<polygon fill="#000000" stroke="#000000" points="2731.7843,-179.5001 2721.7843,-183 2731.7843,-186.5001 2731.7843,-179.5001"/>
</g>
<!-- AddressComponent -->
<g id="node3" class="node">
<title>AddressComponent</title>
<polygon fill="#ffffb3" stroke="#000000" points="5052.7036,-122 4925.2964,-122 4925.2964,-86 5052.7036,-86 5052.7036,-122"/>
<text text-anchor="middle" x="4989" y="-99.8" font-family="Times,serif" font-size="14.00" fill="#000000">AddressComponent</text>
</g>
<!-- AddressComponent&#45;&gt;AppModule -->
<g id="edge3" class="edge">
<title>AddressComponent&#45;&gt;AppModule</title>
<path fill="none" stroke="#000000" d="M4989,-122.2479C4989,-145.0179 4989,-181 4989,-181 4989,-181 2732.0481,-181 2732.0481,-181"/>
<polygon fill="#000000" stroke="#000000" points="2732.0481,-177.5001 2722.0481,-181 2732.048,-184.5001 2732.0481,-177.5001"/>
</g>
<!-- AdminComponent -->
<g id="node4" class="node">
<title>AdminComponent</title>
<polygon fill="#ffffb3" stroke="#000000" points="4907.2204,-122 4786.7796,-122 4786.7796,-86 4907.2204,-86 4907.2204,-122"/>
<text text-anchor="middle" x="4847" y="-99.8" font-family="Times,serif" font-size="14.00" fill="#000000">AdminComponent</text>
</g>
<!-- AdminComponent&#45;&gt;AppModule -->
<g id="edge4" class="edge">
<title>AdminComponent&#45;&gt;AppModule</title>
<path fill="none" stroke="#000000" d="M4847,-122.1554C4847,-144.3519 4847,-179 4847,-179 4847,-179 2731.833,-179 2731.833,-179"/>
<polygon fill="#000000" stroke="#000000" points="2731.8331,-175.5001 2721.833,-179 2731.833,-182.5001 2731.8331,-175.5001"/>
</g>
<!-- AnonymousComponent -->
<g id="node5" class="node">
<title>AnonymousComponent</title>
<polygon fill="#ffffb3" stroke="#000000" points="4768.7744,-122 4619.2256,-122 4619.2256,-86 4768.7744,-86 4768.7744,-122"/>
<text text-anchor="middle" x="4694" y="-99.8" font-family="Times,serif" font-size="14.00" fill="#000000">AnonymousComponent</text>
</g>
<!-- AnonymousComponent&#45;&gt;AppModule -->
<g id="edge5" class="edge">
<title>AnonymousComponent&#45;&gt;AppModule</title>
<path fill="none" stroke="#000000" d="M4694,-122.0449C4694,-143.6623 4694,-177 4694,-177 4694,-177 2732.0653,-177 2732.0653,-177"/>
<polygon fill="#000000" stroke="#000000" points="2732.0653,-173.5001 2722.0653,-177 2732.0652,-180.5001 2732.0653,-173.5001"/>
</g>
<!-- AppComponent -->
<g id="node6" class="node">
<title>AppComponent</title>
<polygon fill="#ffffb3" stroke="#000000" points="4600.9399,-122 4495.0601,-122 4495.0601,-86 4600.9399,-86 4600.9399,-122"/>
<text text-anchor="middle" x="4548" y="-99.8" font-family="Times,serif" font-size="14.00" fill="#000000">AppComponent</text>
</g>
<!-- AppComponent&#45;&gt;AppModule -->
<g id="edge6" class="edge">
<title>AppComponent&#45;&gt;AppModule</title>
<path fill="none" stroke="#000000" d="M4548,-122.2843C4548,-143.3211 4548,-175 4548,-175 4548,-175 2732.0791,-175 2732.0791,-175"/>
<polygon fill="#000000" stroke="#000000" points="2732.0792,-171.5001 2722.0791,-175 2732.0791,-178.5001 2732.0792,-171.5001"/>
</g>
<!-- CarPickerComponent -->
<g id="node7" class="node">
<title>CarPickerComponent</title>
<polygon fill="#ffffb3" stroke="#000000" points="4477.8075,-122 4340.1925,-122 4340.1925,-86 4477.8075,-86 4477.8075,-122"/>
<text text-anchor="middle" x="4409" y="-99.8" font-family="Times,serif" font-size="14.00" fill="#000000">CarPickerComponent</text>
</g>
<!-- CarPickerComponent&#45;&gt;AppModule -->
<g id="edge7" class="edge">
<title>CarPickerComponent&#45;&gt;AppModule</title>
<path fill="none" stroke="#000000" d="M4409,-122.1289C4409,-142.5724 4409,-173 4409,-173 4409,-173 2731.8829,-173 2731.8829,-173"/>
<polygon fill="#000000" stroke="#000000" points="2731.8829,-169.5001 2721.8829,-173 2731.8828,-176.5001 2731.8829,-169.5001"/>
</g>
<!-- CatalogueComponent -->
<g id="node8" class="node">
<title>CatalogueComponent</title>
<polygon fill="#ffffb3" stroke="#000000" points="4322.094,-122 4183.906,-122 4183.906,-86 4322.094,-86 4322.094,-122"/>
<text text-anchor="middle" x="4253" y="-99.8" font-family="Times,serif" font-size="14.00" fill="#000000">CatalogueComponent</text>
</g>
<!-- CatalogueComponent&#45;&gt;AppModule -->
<g id="edge8" class="edge">
<title>CatalogueComponent&#45;&gt;AppModule</title>
<path fill="none" stroke="#000000" d="M4253,-122.308C4253,-142.1455 4253,-171 4253,-171 4253,-171 2731.6688,-171 2731.6688,-171"/>
<polygon fill="#000000" stroke="#000000" points="2731.6688,-167.5001 2721.6688,-171 2731.6687,-174.5001 2731.6688,-167.5001"/>
</g>
<!-- ContactComponent -->
<g id="node9" class="node">
<title>ContactComponent</title>
<polygon fill="#ffffb3" stroke="#000000" points="4166.3795,-122 4041.6205,-122 4041.6205,-86 4166.3795,-86 4166.3795,-122"/>
<text text-anchor="middle" x="4104" y="-99.8" font-family="Times,serif" font-size="14.00" fill="#000000">ContactComponent</text>
</g>
<!-- ContactComponent&#45;&gt;AppModule -->
<g id="edge9" class="edge">
<title>ContactComponent&#45;&gt;AppModule</title>
<path fill="none" stroke="#000000" d="M4104,-122.1061C4104,-141.3391 4104,-169 4104,-169 4104,-169 2731.8464,-169 2731.8464,-169"/>
<polygon fill="#000000" stroke="#000000" points="2731.8465,-165.5001 2721.8464,-169 2731.8464,-172.5001 2731.8465,-165.5001"/>
</g>
<!-- GiftComponent -->
<g id="node10" class="node">
<title>GiftComponent</title>
<polygon fill="#ffffb3" stroke="#000000" points="4023.8809,-122 3920.1191,-122 3920.1191,-86 4023.8809,-86 4023.8809,-122"/>
<text text-anchor="middle" x="3972" y="-99.8" font-family="Times,serif" font-size="14.00" fill="#000000">GiftComponent</text>
</g>
<!-- GiftComponent&#45;&gt;AppModule -->
<g id="edge10" class="edge">
<title>GiftComponent&#45;&gt;AppModule</title>
<path fill="none" stroke="#000000" d="M3972,-122.2222C3972,-140.8285 3972,-167 3972,-167 3972,-167 2731.8875,-167 2731.8875,-167"/>
<polygon fill="#000000" stroke="#000000" points="2731.8875,-163.5001 2721.8875,-167 2731.8875,-170.5001 2731.8875,-163.5001"/>
</g>
<!-- LightProfilComponent -->
<g id="node11" class="node">
<title>LightProfilComponent</title>
<polygon fill="#ffffb3" stroke="#000000" points="3901.5519,-122 3758.4481,-122 3758.4481,-86 3901.5519,-86 3901.5519,-122"/>
<text text-anchor="middle" x="3830" y="-99.8" font-family="Times,serif" font-size="14.00" fill="#000000">LightProfilComponent</text>
</g>
<!-- LightProfilComponent&#45;&gt;AppModule -->
<g id="edge11" class="edge">
<title>LightProfilComponent&#45;&gt;AppModule</title>
<path fill="none" stroke="#000000" d="M3830,-122.302C3830,-140.2699 3830,-165 3830,-165 3830,-165 2731.9501,-165 2731.9501,-165"/>
<polygon fill="#000000" stroke="#000000" points="2731.9501,-161.5001 2721.9501,-165 2731.9501,-168.5001 2731.9501,-161.5001"/>
</g>
<!-- ListMessagesComponent -->
<g id="node12" class="node">
<title>ListMessagesComponent</title>
<polygon fill="#ffffb3" stroke="#000000" points="3739.5337,-122 3582.4663,-122 3582.4663,-86 3739.5337,-86 3739.5337,-122"/>
<text text-anchor="middle" x="3661" y="-99.8" font-family="Times,serif" font-size="14.00" fill="#000000">ListMessagesComponent</text>
</g>
<!-- ListMessagesComponent&#45;&gt;AppModule -->
<g id="edge12" class="edge">
<title>ListMessagesComponent&#45;&gt;AppModule</title>
<path fill="none" stroke="#000000" d="M3661,-122.0225C3661,-139.3734 3661,-163 3661,-163 3661,-163 2731.8385,-163 2731.8385,-163"/>
<polygon fill="#000000" stroke="#000000" points="2731.8386,-159.5001 2721.8385,-163 2731.8385,-166.5001 2731.8386,-159.5001"/>
</g>
<!-- ListWorksComponent -->
<g id="node13" class="node">
<title>ListWorksComponent</title>
<polygon fill="#ffffb3" stroke="#000000" points="3564.4313,-122 3423.5687,-122 3423.5687,-86 3564.4313,-86 3564.4313,-122"/>
<text text-anchor="middle" x="3494" y="-99.8" font-family="Times,serif" font-size="14.00" fill="#000000">ListWorksComponent</text>
</g>
<!-- ListWorksComponent&#45;&gt;AppModule -->
<g id="edge13" class="edge">
<title>ListWorksComponent&#45;&gt;AppModule</title>
<path fill="none" stroke="#000000" d="M3494,-122.0352C3494,-138.7344 3494,-161 3494,-161 3494,-161 2731.7674,-161 2731.7674,-161"/>
<polygon fill="#000000" stroke="#000000" points="2731.7674,-157.5001 2721.7674,-161 2731.7673,-164.5001 2731.7674,-157.5001"/>
</g>
<!-- LoginComponent -->
<g id="node14" class="node">
<title>LoginComponent</title>
<polygon fill="#ffffb3" stroke="#000000" points="3405.2758,-122 3290.7242,-122 3290.7242,-86 3405.2758,-86 3405.2758,-122"/>
<text text-anchor="middle" x="3348" y="-99.8" font-family="Times,serif" font-size="14.00" fill="#000000">LoginComponent</text>
</g>
<!-- LoginComponent&#45;&gt;AppModule -->
<g id="edge14" class="edge">
<title>LoginComponent&#45;&gt;AppModule</title>
<path fill="none" stroke="#000000" d="M3348,-122.0091C3348,-138.0494 3348,-159 3348,-159 3348,-159 2731.7864,-159 2731.7864,-159"/>
<polygon fill="#000000" stroke="#000000" points="2731.7864,-155.5001 2721.7864,-159 2731.7864,-162.5001 2731.7864,-155.5001"/>
</g>
<!-- MainComponent -->
<g id="node15" class="node">
<title>MainComponent</title>
<polygon fill="#ffffb3" stroke="#000000" points="3272.3823,-122 3161.6177,-122 3161.6177,-86 3272.3823,-86 3272.3823,-122"/>
<text text-anchor="middle" x="3217" y="-99.8" font-family="Times,serif" font-size="14.00" fill="#000000">MainComponent</text>
</g>
<!-- MainComponent&#45;&gt;AppModule -->
<g id="edge15" class="edge">
<title>MainComponent&#45;&gt;AppModule</title>
<path fill="none" stroke="#000000" d="M3217,-122.2396C3217,-137.5706 3217,-157 3217,-157 3217,-157 2731.6906,-157 2731.6906,-157"/>
<polygon fill="#000000" stroke="#000000" points="2731.6907,-153.5001 2721.6906,-157 2731.6906,-160.5001 2731.6907,-153.5001"/>
</g>
<!-- MenuComponent -->
<g id="node16" class="node">
<title>MenuComponent</title>
<polygon fill="#ffffb3" stroke="#000000" points="3143.9916,-122 3030.0084,-122 3030.0084,-86 3143.9916,-86 3143.9916,-122"/>
<text text-anchor="middle" x="3087" y="-99.8" font-family="Times,serif" font-size="14.00" fill="#000000">MenuComponent</text>
</g>
<!-- MenuComponent&#45;&gt;AppModule -->
<g id="edge16" class="edge">
<title>MenuComponent&#45;&gt;AppModule</title>
<path fill="none" stroke="#000000" d="M3087,-122.1243C3087,-136.7832 3087,-155 3087,-155 3087,-155 2732.0232,-155 2732.0232,-155"/>
<polygon fill="#000000" stroke="#000000" points="2732.0232,-151.5001 2722.0232,-155 2732.0232,-158.5001 2732.0232,-151.5001"/>
</g>
<!-- ModalInputComponent -->
<g id="node17" class="node">
<title>ModalInputComponent</title>
<polygon fill="#ffffb3" stroke="#000000" points="3011.934,-122 2864.066,-122 2864.066,-86 3011.934,-86 3011.934,-122"/>
<text text-anchor="middle" x="2938" y="-99.8" font-family="Times,serif" font-size="14.00" fill="#000000">ModalInputComponent</text>
</g>
<!-- ModalInputComponent&#45;&gt;AppModule -->
<g id="edge17" class="edge">
<title>ModalInputComponent&#45;&gt;AppModule</title>
<path fill="none" stroke="#000000" d="M2938,-122.2458C2938,-136.1772 2938,-153 2938,-153 2938,-153 2731.7389,-153 2731.7389,-153"/>
<polygon fill="#000000" stroke="#000000" points="2731.7389,-149.5001 2721.7389,-153 2731.7389,-156.5001 2731.7389,-149.5001"/>
</g>
<!-- NewReferenceComponent -->
<g id="node18" class="node">
<title>NewReferenceComponent</title>
<polygon fill="#ffffb3" stroke="#000000" points="2846.4917,-122 2681.5083,-122 2681.5083,-86 2846.4917,-86 2846.4917,-122"/>
<text text-anchor="middle" x="2764" y="-99.8" font-family="Times,serif" font-size="14.00" fill="#000000">NewReferenceComponent</text>
</g>
<!-- NewReferenceComponent&#45;&gt;AppModule -->
<g id="edge18" class="edge">
<title>NewReferenceComponent&#45;&gt;AppModule</title>
<path fill="none" stroke="#000000" d="M2701.7914,-122.1061C2701.7914,-122.1061 2701.7914,-140.991 2701.7914,-140.991"/>
<polygon fill="#000000" stroke="#000000" points="2698.2914,-140.9909 2701.7914,-150.991 2705.2914,-140.991 2698.2914,-140.9909"/>
</g>
<!-- NewUserComponent -->
<g id="node19" class="node">
<title>NewUserComponent</title>
<polygon fill="#ffffb3" stroke="#000000" points="2664.1867,-122 2529.8133,-122 2529.8133,-86 2664.1867,-86 2664.1867,-122"/>
<text text-anchor="middle" x="2597" y="-99.8" font-family="Times,serif" font-size="14.00" fill="#000000">NewUserComponent</text>
</g>
<!-- NewUserComponent&#45;&gt;AppModule -->
<g id="edge19" class="edge">
<title>NewUserComponent&#45;&gt;AppModule</title>
<path fill="none" stroke="#000000" d="M2651.1326,-122.1061C2651.1326,-122.1061 2651.1326,-140.991 2651.1326,-140.991"/>
<polygon fill="#000000" stroke="#000000" points="2647.6326,-140.9909 2651.1326,-150.991 2654.6326,-140.991 2647.6326,-140.9909"/>
</g>
<!-- NextAppointmentComponent -->
<g id="node20" class="node">
<title>NextAppointmentComponent</title>
<polygon fill="#ffffb3" stroke="#000000" points="2512.4283,-122 2329.5717,-122 2329.5717,-86 2512.4283,-86 2512.4283,-122"/>
<text text-anchor="middle" x="2421" y="-99.8" font-family="Times,serif" font-size="14.00" fill="#000000">NextAppointmentComponent</text>
</g>
<!-- NextAppointmentComponent&#45;&gt;AppModule -->
<g id="edge20" class="edge">
<title>NextAppointmentComponent&#45;&gt;AppModule</title>
<path fill="none" stroke="#000000" d="M2421,-122.2458C2421,-136.1772 2421,-153 2421,-153 2421,-153 2628.0993,-153 2628.0993,-153"/>
<polygon fill="#000000" stroke="#000000" points="2628.0994,-156.5001 2638.0993,-153 2628.0993,-149.5001 2628.0994,-156.5001"/>
</g>
<!-- PageNotFoundComponent -->
<g id="node21" class="node">
<title>PageNotFoundComponent</title>
<polygon fill="#ffffb3" stroke="#000000" points="2311.8243,-122 2146.1757,-122 2146.1757,-86 2311.8243,-86 2311.8243,-122"/>
<text text-anchor="middle" x="2229" y="-99.8" font-family="Times,serif" font-size="14.00" fill="#000000">PageNotFoundComponent</text>
</g>
<!-- PageNotFoundComponent&#45;&gt;AppModule -->
<g id="edge21" class="edge">
<title>PageNotFoundComponent&#45;&gt;AppModule</title>
<path fill="none" stroke="#000000" d="M2229,-122.1243C2229,-136.7832 2229,-155 2229,-155 2229,-155 2627.976,-155 2627.976,-155"/>
<polygon fill="#000000" stroke="#000000" points="2627.976,-158.5001 2637.976,-155 2627.976,-151.5001 2627.976,-158.5001"/>
</g>
<!-- PreferencesComponent -->
<g id="node22" class="node">
<title>PreferencesComponent</title>
<polygon fill="#ffffb3" stroke="#000000" points="2128.1149,-122 1981.8851,-122 1981.8851,-86 2128.1149,-86 2128.1149,-122"/>
<text text-anchor="middle" x="2055" y="-99.8" font-family="Times,serif" font-size="14.00" fill="#000000">PreferencesComponent</text>
</g>
<!-- PreferencesComponent&#45;&gt;AppModule -->
<g id="edge22" class="edge">
<title>PreferencesComponent&#45;&gt;AppModule</title>
<path fill="none" stroke="#000000" d="M2055,-122.2396C2055,-137.5706 2055,-157 2055,-157 2055,-157 2628.0215,-157 2628.0215,-157"/>
<polygon fill="#000000" stroke="#000000" points="2628.0215,-160.5001 2638.0215,-157 2628.0215,-153.5001 2628.0215,-160.5001"/>
</g>
<!-- ProductComponent -->
<g id="node23" class="node">
<title>ProductComponent</title>
<polygon fill="#ffffb3" stroke="#000000" points="1963.3809,-122 1838.6191,-122 1838.6191,-86 1963.3809,-86 1963.3809,-122"/>
<text text-anchor="middle" x="1901" y="-99.8" font-family="Times,serif" font-size="14.00" fill="#000000">ProductComponent</text>
</g>
<!-- ProductComponent&#45;&gt;AppModule -->
<g id="edge23" class="edge">
<title>ProductComponent&#45;&gt;AppModule</title>
<path fill="none" stroke="#000000" d="M1901,-122.0091C1901,-138.0494 1901,-159 1901,-159 1901,-159 2628.1176,-159 2628.1176,-159"/>
<polygon fill="#000000" stroke="#000000" points="2628.1176,-162.5001 2638.1176,-159 2628.1175,-155.5001 2628.1176,-162.5001"/>
</g>
<!-- ProductPickerComponent -->
<g id="node24" class="node">
<title>ProductPickerComponent</title>
<polygon fill="#ffffb3" stroke="#000000" points="1820.1442,-122 1659.8558,-122 1659.8558,-86 1820.1442,-86 1820.1442,-122"/>
<text text-anchor="middle" x="1740" y="-99.8" font-family="Times,serif" font-size="14.00" fill="#000000">ProductPickerComponent</text>
</g>
<!-- ProductPickerComponent&#45;&gt;AppModule -->
<g id="edge24" class="edge">
<title>ProductPickerComponent&#45;&gt;AppModule</title>
<path fill="none" stroke="#000000" d="M1740,-122.0352C1740,-138.7344 1740,-161 1740,-161 1740,-161 2628.0908,-161 2628.0908,-161"/>
<polygon fill="#000000" stroke="#000000" points="2628.0908,-164.5001 2638.0908,-161 2628.0907,-157.5001 2628.0908,-164.5001"/>
</g>
<!-- ProfilComponent -->
<g id="node25" class="node">
<title>ProfilComponent</title>
<polygon fill="#ffffb3" stroke="#000000" points="1641.7176,-122 1528.2824,-122 1528.2824,-86 1641.7176,-86 1641.7176,-122"/>
<text text-anchor="middle" x="1585" y="-99.8" font-family="Times,serif" font-size="14.00" fill="#000000">ProfilComponent</text>
</g>
<!-- ProfilComponent&#45;&gt;AppModule -->
<g id="edge25" class="edge">
<title>ProfilComponent&#45;&gt;AppModule</title>
<path fill="none" stroke="#000000" d="M1585,-122.0225C1585,-139.3734 1585,-163 1585,-163 1585,-163 2628.0793,-163 2628.0793,-163"/>
<polygon fill="#000000" stroke="#000000" points="2628.0794,-166.5001 2638.0793,-163 2628.0793,-159.5001 2628.0794,-166.5001"/>
</g>
<!-- ReferencesComponent -->
<g id="node26" class="node">
<title>ReferencesComponent</title>
<polygon fill="#ffffb3" stroke="#000000" points="1510.5086,-122 1367.4914,-122 1367.4914,-86 1510.5086,-86 1510.5086,-122"/>
<text text-anchor="middle" x="1439" y="-99.8" font-family="Times,serif" font-size="14.00" fill="#000000">ReferencesComponent</text>
</g>
<!-- ReferencesComponent&#45;&gt;AppModule -->
<g id="edge26" class="edge">
<title>ReferencesComponent&#45;&gt;AppModule</title>
<path fill="none" stroke="#000000" d="M1439,-122.302C1439,-140.2699 1439,-165 1439,-165 1439,-165 2627.9986,-165 2627.9986,-165"/>
<polygon fill="#000000" stroke="#000000" points="2627.9986,-168.5001 2637.9986,-165 2627.9986,-161.5001 2627.9986,-168.5001"/>
</g>
<!-- SafePipe -->
<g id="node27" class="node">
<title>SafePipe</title>
<polygon fill="#ffffb3" stroke="#000000" points="1348.7606,-122 1283.2394,-122 1283.2394,-86 1348.7606,-86 1348.7606,-122"/>
<text text-anchor="middle" x="1316" y="-99.8" font-family="Times,serif" font-size="14.00" fill="#000000">SafePipe</text>
</g>
<!-- SafePipe&#45;&gt;AppModule -->
<g id="edge27" class="edge">
<title>SafePipe&#45;&gt;AppModule</title>
<path fill="none" stroke="#000000" d="M1316,-122.2222C1316,-140.8285 1316,-167 1316,-167 1316,-167 2628.0587,-167 2628.0587,-167"/>
<polygon fill="#000000" stroke="#000000" points="2628.0588,-170.5001 2638.0587,-167 2628.0587,-163.5001 2628.0588,-170.5001"/>
</g>
<!-- ScheduleComponent -->
<g id="node28" class="node">
<title>ScheduleComponent</title>
<polygon fill="#ffffb3" stroke="#000000" points="1265.1499,-122 1132.8501,-122 1132.8501,-86 1265.1499,-86 1265.1499,-122"/>
<text text-anchor="middle" x="1199" y="-99.8" font-family="Times,serif" font-size="14.00" fill="#000000">ScheduleComponent</text>
</g>
<!-- ScheduleComponent&#45;&gt;AppModule -->
<g id="edge28" class="edge">
<title>ScheduleComponent&#45;&gt;AppModule</title>
<path fill="none" stroke="#000000" d="M1199,-122.1061C1199,-141.3391 1199,-169 1199,-169 1199,-169 2628.0622,-169 2628.0622,-169"/>
<polygon fill="#000000" stroke="#000000" points="2628.0622,-172.5001 2638.0622,-169 2628.0621,-165.5001 2628.0622,-172.5001"/>
</g>
<!-- ServicesComponent -->
<g id="node29" class="node">
<title>ServicesComponent</title>
<polygon fill="#ffffb3" stroke="#000000" points="1114.2548,-122 985.7452,-122 985.7452,-86 1114.2548,-86 1114.2548,-122"/>
<text text-anchor="middle" x="1050" y="-99.8" font-family="Times,serif" font-size="14.00" fill="#000000">ServicesComponent</text>
</g>
<!-- ServicesComponent&#45;&gt;AppModule -->
<g id="edge29" class="edge">
<title>ServicesComponent&#45;&gt;AppModule</title>
<path fill="none" stroke="#000000" d="M1050,-122.308C1050,-142.1455 1050,-171 1050,-171 1050,-171 2628.0696,-171 2628.0696,-171"/>
<polygon fill="#000000" stroke="#000000" points="2628.0697,-174.5001 2638.0696,-171 2628.0696,-167.5001 2628.0697,-174.5001"/>
</g>
<!-- ShareComponent -->
<g id="node30" class="node">
<title>ShareComponent</title>
<polygon fill="#ffffb3" stroke="#000000" points="967.705,-122 854.295,-122 854.295,-86 967.705,-86 967.705,-122"/>
<text text-anchor="middle" x="911" y="-99.8" font-family="Times,serif" font-size="14.00" fill="#000000">ShareComponent</text>
</g>
<!-- ShareComponent&#45;&gt;AppModule -->
<g id="edge30" class="edge">
<title>ShareComponent&#45;&gt;AppModule</title>
<path fill="none" stroke="#000000" d="M911,-122.1289C911,-142.5724 911,-173 911,-173 911,-173 2628.0165,-173 2628.0165,-173"/>
<polygon fill="#000000" stroke="#000000" points="2628.0165,-176.5001 2638.0165,-173 2628.0164,-169.5001 2628.0165,-176.5001"/>
</g>
<!-- TimerComponent -->
<g id="node31" class="node">
<title>TimerComponent</title>
<polygon fill="#ffffb3" stroke="#000000" points="836.5423,-122 721.4577,-122 721.4577,-86 836.5423,-86 836.5423,-122"/>
<text text-anchor="middle" x="779" y="-99.8" font-family="Times,serif" font-size="14.00" fill="#000000">TimerComponent</text>
</g>
<!-- TimerComponent&#45;&gt;AppModule -->
<g id="edge31" class="edge">
<title>TimerComponent&#45;&gt;AppModule</title>
<path fill="none" stroke="#000000" d="M779,-122.2843C779,-143.3211 779,-175 779,-175 779,-175 2628.0794,-175 2628.0794,-175"/>
<polygon fill="#000000" stroke="#000000" points="2628.0794,-178.5001 2638.0794,-175 2628.0794,-171.5001 2628.0794,-178.5001"/>
</g>
<!-- TutoComponent -->
<g id="node32" class="node">
<title>TutoComponent</title>
<polygon fill="#ffffb3" stroke="#000000" points="702.7758,-122 595.2242,-122 595.2242,-86 702.7758,-86 702.7758,-122"/>
<text text-anchor="middle" x="649" y="-99.8" font-family="Times,serif" font-size="14.00" fill="#000000">TutoComponent</text>
</g>
<!-- TutoComponent&#45;&gt;AppModule -->
<g id="edge32" class="edge">
<title>TutoComponent&#45;&gt;AppModule</title>
<path fill="none" stroke="#000000" d="M649,-122.0449C649,-143.6623 649,-177 649,-177 649,-177 2628.0459,-177 2628.0459,-177"/>
<polygon fill="#000000" stroke="#000000" points="2628.0459,-180.5001 2638.0459,-177 2628.0458,-173.5001 2628.0459,-180.5001"/>
</g>
<!-- WelcomeComponent -->
<g id="node33" class="node">
<title>WelcomeComponent</title>
<polygon fill="#ffffb3" stroke="#000000" points="577.472,-122 442.528,-122 442.528,-86 577.472,-86 577.472,-122"/>
<text text-anchor="middle" x="510" y="-99.8" font-family="Times,serif" font-size="14.00" fill="#000000">WelcomeComponent</text>
</g>
<!-- WelcomeComponent&#45;&gt;AppModule -->
<g id="edge33" class="edge">
<title>WelcomeComponent&#45;&gt;AppModule</title>
<path fill="none" stroke="#000000" d="M510,-122.1554C510,-144.3519 510,-179 510,-179 510,-179 2628.109,-179 2628.109,-179"/>
<polygon fill="#000000" stroke="#000000" points="2628.1091,-182.5001 2638.109,-179 2628.109,-175.5001 2628.1091,-182.5001"/>
</g>
<!-- AppComponent  -->
<g id="node36" class="node">
<title>AppComponent </title>
<polygon fill="#80b1d3" stroke="#000000" points="2734.439,-252 2625.561,-252 2625.561,-216 2734.439,-216 2734.439,-252"/>
<text text-anchor="middle" x="2680" y="-229.8" font-family="Times,serif" font-size="14.00" fill="#000000">AppComponent </text>
</g>
<!-- AppModule&#45;&gt;AppComponent  -->
<g id="edge35" class="edge">
<title>AppModule&#45;&gt;AppComponent </title>
<path fill="none" stroke="#000000" stroke-dasharray="1,5" d="M2680,-187.1061C2680,-187.1061 2680,-205.991 2680,-205.991"/>
<polygon fill="#000000" stroke="#000000" points="2676.5001,-205.9909 2680,-215.991 2683.5001,-205.991 2676.5001,-205.9909"/>
</g>
<!-- AppRoutingModule -->
<g id="node35" class="node">
<title>AppRoutingModule</title>
<polygon fill="#8dd3c7" stroke="#000000" points="419.2744,-122 416.2744,-126 395.2744,-126 392.2744,-122 290.7256,-122 290.7256,-86 419.2744,-86 419.2744,-122"/>
<text text-anchor="middle" x="355" y="-99.8" font-family="Times,serif" font-size="14.00" fill="#000000">AppRoutingModule</text>
</g>
<!-- AppRoutingModule&#45;&gt;AppModule -->
<g id="edge34" class="edge">
<title>AppRoutingModule&#45;&gt;AppModule</title>
<path fill="none" stroke="#000000" d="M355,-122.2479C355,-145.0179 355,-181 355,-181 355,-181 2628.1609,-181 2628.1609,-181"/>
<polygon fill="#000000" stroke="#000000" points="2628.161,-184.5001 2638.1609,-181 2628.1609,-177.5001 2628.161,-184.5001"/>
</g>
<!-- ApiService -->
<g id="node37" class="node">
<title>ApiService</title>
<ellipse fill="#fdb462" stroke="#000000" cx="213" cy="-104" rx="54.4508" ry="18"/>
<text text-anchor="middle" x="213" y="-99.8" font-family="Times,serif" font-size="14.00" fill="#000000">ApiService</text>
</g>
<!-- ApiService&#45;&gt;AppModule -->
<g id="edge36" class="edge">
<title>ApiService&#45;&gt;AppModule</title>
<path fill="none" stroke="#000000" d="M213,-122.3228C213,-145.6602 213,-183 213,-183 213,-183 2628.2157,-183 2628.2157,-183"/>
<polygon fill="#000000" stroke="#000000" points="2628.2157,-186.5001 2638.2157,-183 2628.2157,-179.5001 2628.2157,-186.5001"/>
</g>
<!-- UserService -->
<g id="node38" class="node">
<title>UserService</title>
<ellipse fill="#fdb462" stroke="#000000" cx="82" cy="-104" rx="58.4415" ry="18"/>
<text text-anchor="middle" x="82" y="-99.8" font-family="Times,serif" font-size="14.00" fill="#000000">UserService</text>
</g>
<!-- UserService&#45;&gt;AppModule -->
<g id="edge37" class="edge">
<title>UserService&#45;&gt;AppModule</title>
<path fill="none" stroke="#000000" d="M82,-122.3802C82,-146.2785 82,-185 82,-185 82,-185 2628.1393,-185 2628.1393,-185"/>
<polygon fill="#000000" stroke="#000000" points="2628.1394,-188.5001 2638.1393,-185 2628.1393,-181.5001 2628.1394,-188.5001"/>
</g>
</g>
</svg>
